<?xml version="1.0" encoding="UTF-8" standalone="no"?>
<svg
   width="500"
   height="500"
   version="1.1"
   id="svg383"
   sodipodi:docname="logo.svg"
   inkscape:version="1.3.2 (091e20e, 2023-11-25, custom)"
   xmlns:inkscape="http://www.inkscape.org/namespaces/inkscape"
   xmlns:sodipodi="http://sodipodi.sourceforge.net/DTD/sodipodi-0.dtd"
   xmlns="http://www.w3.org/2000/svg"
   xmlns:svg="http://www.w3.org/2000/svg">
  <defs
     id="defs383">
    <inkscape:path-effect
       effect="powerclip"
       id="path-effect393"
       is_visible="true"
       lpeversion="1"
       inverse="true"
       flatten="false"
       hide_clip="false"
       message="A váltakozó kitöltési szabályt érdemes alkalmazni a &lt;b&gt;kitöltés és körvonal&lt;/b&gt; párbeszédablakon, ha a vágások útvonallá alakítása után az eredmény nem lapos." />
    <clipPath
       clipPathUnits="userSpaceOnUse"
       id="clipPath393">
      <path
         style="display:block;fill:#010101;stroke:none"
         d="m 206.228,283.956 c -5.881,1.616 -1.903,9.166 0.831,11.526 8.468,7.309 18.865,12.958 27.941,19.529 4.254,3.08 8.337,6.888 14,5.566 5.308,-1.239 9.709,-5.731 14,-8.832 7.836,-5.662 16.566,-10.375 23.941,-16.633 2.877,-2.44 6.769,-10.695 -0.05,-11.145 -3.666,-0.242 -7.173,3.14 -9.891,5.16 -6.554,4.873 -13.348,9.424 -20,14.164 -2.954,2.105 -7.05,6.303 -11,5.703 -3.315,-0.503 -6.318,-3.666 -9,-5.475 -6.457,-4.358 -12.863,-8.709 -19,-13.519 -2.875,-2.253 -7.668,-7.171 -11.772,-6.044 z"
         id="path393" />
    </clipPath>
    <clipPath
       clipPathUnits="userSpaceOnUse"
       id="clipPath393-3">
      <path
         style="display:none;fill:#010101;stroke:none"
         d="m 206.228,283.956 c -5.881,1.616 -1.903,9.166 0.831,11.526 8.468,7.309 18.865,12.958 27.941,19.529 4.254,3.08 8.337,6.888 14,5.566 5.308,-1.239 9.709,-5.731 14,-8.832 7.836,-5.662 16.566,-10.375 23.941,-16.633 2.877,-2.44 6.769,-10.695 -0.05,-11.145 -3.666,-0.242 -7.173,3.14 -9.891,5.16 -6.554,4.873 -13.348,9.424 -20,14.164 -2.954,2.105 -7.05,6.303 -11,5.703 -3.315,-0.503 -6.318,-3.666 -9,-5.475 -6.457,-4.358 -12.863,-8.709 -19,-13.519 -2.875,-2.253 -7.668,-7.171 -11.772,-6.044 z"
         id="path393-5" />
      <path
         id="lpe_path-effect393"
         style="fill:#010101;stroke:none"
         class="powerclip"
         d="M 168.09757,239.6855 H 325.89406 V 357.94986 H 168.09757 Z M 206.228,283.956 c -5.881,1.616 -1.903,9.166 0.831,11.526 8.468,7.309 18.865,12.958 27.941,19.529 4.254,3.08 8.337,6.888 14,5.566 5.308,-1.239 9.709,-5.731 14,-8.832 7.836,-5.662 16.566,-10.375 23.941,-16.633 2.877,-2.44 6.769,-10.695 -0.05,-11.145 -3.666,-0.242 -7.173,3.14 -9.891,5.16 -6.554,4.873 -13.348,9.424 -20,14.164 -2.954,2.105 -7.05,6.303 -11,5.703 -3.315,-0.503 -6.318,-3.666 -9,-5.475 -6.457,-4.358 -12.863,-8.709 -19,-13.519 -2.875,-2.253 -7.668,-7.171 -11.772,-6.044 z" />
    </clipPath>
    <inkscape:path-effect
       effect="powerclip"
       id="path-effect393-9"
       is_visible="true"
       lpeversion="1"
       inverse="true"
       flatten="false"
       hide_clip="false"
       message="A váltakozó kitöltési szabályt érdemes alkalmazni a &lt;b&gt;kitöltés és körvonal&lt;/b&gt; párbeszédablakon, ha a vágások útvonallá alakítása után az eredmény nem lapos." />
    <clipPath
       clipPathUnits="userSpaceOnUse"
       id="clipath_lpe_path-effect393-9">
      <path
         style="display:block;fill:#010101;stroke:none"
         d="m 206.228,283.956 c -5.881,1.616 -1.903,9.166 0.831,11.526 8.468,7.309 18.865,12.958 27.941,19.529 4.254,3.08 8.337,6.888 14,5.566 5.308,-1.239 9.709,-5.731 14,-8.832 7.836,-5.662 16.566,-10.375 23.941,-16.633 2.877,-2.44 6.769,-10.695 -0.05,-11.145 -3.666,-0.242 -7.173,3.14 -9.891,5.16 -6.554,4.873 -13.348,9.424 -20,14.164 -2.954,2.105 -7.05,6.303 -11,5.703 -3.315,-0.503 -6.318,-3.666 -9,-5.475 -6.457,-4.358 -12.863,-8.709 -19,-13.519 -2.875,-2.253 -7.668,-7.171 -11.772,-6.044 z"
         id="path394" />
    </clipPath>
    <clipPath
       clipPathUnits="userSpaceOnUse"
       id="clipPath393-5">
      <path
         style="display:none;fill:#010101;stroke:none"
         d="m 206.228,283.956 c -5.881,1.616 -1.903,9.166 0.831,11.526 8.468,7.309 18.865,12.958 27.941,19.529 4.254,3.08 8.337,6.888 14,5.566 5.308,-1.239 9.709,-5.731 14,-8.832 7.836,-5.662 16.566,-10.375 23.941,-16.633 2.877,-2.44 6.769,-10.695 -0.05,-11.145 -3.666,-0.242 -7.173,3.14 -9.891,5.16 -6.554,4.873 -13.348,9.424 -20,14.164 -2.954,2.105 -7.05,6.303 -11,5.703 -3.315,-0.503 -6.318,-3.666 -9,-5.475 -6.457,-4.358 -12.863,-8.709 -19,-13.519 -2.875,-2.253 -7.668,-7.171 -11.772,-6.044 z"
         id="path393-7" />
      <path
         id="lpe_path-effect393-98"
         style="fill:#010101;stroke:none"
         class="powerclip"
         d="M 168.09757,239.6855 H 325.89406 V 357.94986 H 168.09757 Z M 206.228,283.956 c -5.881,1.616 -1.903,9.166 0.831,11.526 8.468,7.309 18.865,12.958 27.941,19.529 4.254,3.08 8.337,6.888 14,5.566 5.308,-1.239 9.709,-5.731 14,-8.832 7.836,-5.662 16.566,-10.375 23.941,-16.633 2.877,-2.44 6.769,-10.695 -0.05,-11.145 -3.666,-0.242 -7.173,3.14 -9.891,5.16 -6.554,4.873 -13.348,9.424 -20,14.164 -2.954,2.105 -7.05,6.303 -11,5.703 -3.315,-0.503 -6.318,-3.666 -9,-5.475 -6.457,-4.358 -12.863,-8.709 -19,-13.519 -2.875,-2.253 -7.668,-7.171 -11.772,-6.044 z" />
    </clipPath>
    <inkscape:path-effect
       effect="powerclip"
       id="path-effect393-0"
       is_visible="true"
       lpeversion="1"
       inverse="true"
       flatten="false"
       hide_clip="false"
       message="A váltakozó kitöltési szabályt érdemes alkalmazni a &lt;b&gt;kitöltés és körvonal&lt;/b&gt; párbeszédablakon, ha a vágások útvonallá alakítása után az eredmény nem lapos." />
    <clipPath
       clipPathUnits="userSpaceOnUse"
       id="clipath_lpe_path-effect393-0">
      <path
         style="display:none;fill:#010101;stroke:none"
         d="m 206.228,283.956 c -5.881,1.616 -1.903,9.166 0.831,11.526 8.468,7.309 18.865,12.958 27.941,19.529 4.254,3.08 8.337,6.888 14,5.566 5.308,-1.239 9.709,-5.731 14,-8.832 7.836,-5.662 16.566,-10.375 23.941,-16.633 2.877,-2.44 6.769,-10.695 -0.05,-11.145 -3.666,-0.242 -7.173,3.14 -9.891,5.16 -6.554,4.873 -13.348,9.424 -20,14.164 -2.954,2.105 -7.05,6.303 -11,5.703 -3.315,-0.503 -6.318,-3.666 -9,-5.475 -6.457,-4.358 -12.863,-8.709 -19,-13.519 -2.875,-2.253 -7.668,-7.171 -11.772,-6.044 z"
         id="path395" />
      <path
         id="lpe_path-effect393-0"
         style="fill:#010101;stroke:none"
         class="powerclip"
         d="M 168.09757,239.6855 H 325.89406 V 357.94986 H 168.09757 Z M 206.228,283.956 c -5.881,1.616 -1.903,9.166 0.831,11.526 8.468,7.309 18.865,12.958 27.941,19.529 4.254,3.08 8.337,6.888 14,5.566 5.308,-1.239 9.709,-5.731 14,-8.832 7.836,-5.662 16.566,-10.375 23.941,-16.633 2.877,-2.44 6.769,-10.695 -0.05,-11.145 -3.666,-0.242 -7.173,3.14 -9.891,5.16 -6.554,4.873 -13.348,9.424 -20,14.164 -2.954,2.105 -7.05,6.303 -11,5.703 -3.315,-0.503 -6.318,-3.666 -9,-5.475 -6.457,-4.358 -12.863,-8.709 -19,-13.519 -2.875,-2.253 -7.668,-7.171 -11.772,-6.044 z" />
    </clipPath>
  </defs>
  <sodipodi:namedview
     id="namedview383"
     pagecolor="#505050"
     bordercolor="#ffffff"
     borderopacity="1"
     inkscape:showpageshadow="0"
     inkscape:pageopacity="0"
     inkscape:pagecheckerboard="1"
     inkscape:deskcolor="#505050"
     inkscape:zoom="0.57487781"
     inkscape:cx="-393.12702"
     inkscape:cy="65.231253"
     inkscape:window-width="1920"
     inkscape:window-height="1009"
     inkscape:window-x="1272"
     inkscape:window-y="-8"
     inkscape:window-maximized="1"
     inkscape:current-layer="svg383" />
  <path
     style="fill:#dde7e6;stroke:none;stroke-width:2.45372"
     d="M 248.09514,-0.09128358 C 243.28728,15.595724 233.34756,24.700178 218.18623,31.311712 232.38548,40.867889 244.5609,47.42386 248.09514,65.13031 258.982,51.262265 264.2709,39.114143 282.9889,33.727315 276.79029,29.154563 269.21086,26.485301 263.58297,21.10573 257.10272,14.912096 254.13176,6.3825749 248.09514,-0.09128358 Z"
     id="path13-0" />
  <path
     style="fill:#dde7e6;stroke:none;stroke-width:2.45372"
     d="m 168.338,53.052232 c -3.32737,14.645885 9.4288,28.692685 24.92412,26.571774 C 187.97071,68.118431 180.16947,58.511535 168.338,53.052232 Z"
     id="path36-4" />
  <path
     style="fill:#dde7e6;stroke:none;stroke-width:2.45372"
     d="m 307.91301,74.792784 c 13.96748,12.582933 28.00971,-8.201023 24.9241,-21.740552 -10.82451,4.906124 -17.45685,12.858315 -24.9241,21.740552 z"
     id="path39-7" />
  <path
     style="fill:#dde7e6;stroke:none;stroke-width:2.45372"
     d="m 233.14068,88.409599 c -22.96756,6.319255 -44.83848,23.759971 -50.95235,46.773541 -1.68487,6.33858 -5.22408,32.28229 6.28834,32.28229 9.80017,0 7.8511,-23.49669 10.68498,-29.86666 9.08233,-20.39503 32.52596,-38.702995 56.41073,-35.07716 21.09576,3.20312 38.75698,18.3901 46.64298,37.49277 2.19084,5.30951 1.47051,28.31826 10.48307,26.76259 16.59198,-2.86491 3.75855,-36.21732 -0.70535,-43.67189 -15.23112,-25.43401 -48.39763,-43.072829 -78.8524,-34.695481 z"
     id="path51-7" />
  <path
     style="fill:#dde7e6;stroke:none;stroke-width:2.45372"
     d="m 120.9822,108.61138 c 4.55862,13.31247 25.35032,13.31004 29.90894,0 -10.52546,-2.42768 -19.38348,-2.42768 -29.90894,0 z"
     id="path65-4" />
  <path
     style="fill:#dde7e6;stroke:none;stroke-width:2.45372"
     d="m 380.19293,113.44262 c -5.3238,-5.27088 -24.31596,-13.29796 -28.75994,-2.00496 -3.30742,8.40876 14.83234,6.75648 18.67813,6.17914 4.01028,-0.59907 6.55006,-2.34797 10.08181,-4.17418 z"
     id="path70-5" />
  <path
     style="fill:#dde7e6;stroke:none;stroke-width:2.45372"
     d="m 240.87962,132.14431 c -8.6736,3.54854 -13.17738,13.583 -12.04583,22.36135 1.28361,9.99338 10.95914,15.08309 13.48644,24.37596 3.93053,14.45505 0.79011,33.19057 0.79011,48.09489 0,5.40372 -3.05321,28.50909 7.47723,26.76259 11.0937,-1.84311 7.47722,-24.1827 7.47722,-31.59382 0,-13.45499 -2.75909,-30.20483 0.79009,-43.26366 2.7591,-10.14558 13.62352,-15.37781 13.62104,-26.78917 0,-15.43336 -17.02815,-25.90747 -31.5963,-19.94814 z"
     id="path90-8" />
  <path
     style="fill:#dde7e6;stroke:none;stroke-width:2.45372"
     d="m 130.95184,147.26122 c -5.92695,11.45485 -11.66697,18.67754 -24.92412,21.74053 11.68692,6.90868 18.63826,12.00803 24.92412,24.15616 7.85359,-10.73501 13.96498,-17.8659 27.41651,-21.74054 -11.37536,-7.46907 -19.01709,-13.45014 -27.41651,-24.15615 z"
     id="path102-2" />
  <path
     style="fill:#dde7e6;stroke:none;stroke-width:2.45372"
     d="m 367.73086,147.26122 c -5.26894,10.63838 -11.29061,16.88756 -22.43169,21.74053 9.51104,7.78552 17.19514,12.72063 22.43169,24.15616 8.03306,-9.21799 13.12505,-16.66533 24.92413,-21.74054 -8.89792,-7.78795 -16.88859,-15.5324 -24.92413,-24.15615 z"
     id="path104-2" />
  <path
     style="fill:#dde7e6;stroke:none;stroke-width:2.45372"
     d="m 420.07149,173.83299 c 4.48883,1.35757 7.78131,1.99047 12.46206,2.41562 -2.4351,-8.2928 -6.58744,-8.32663 -12.46206,-2.41562 z"
     id="path119-1" />
  <path
     style="fill:#dde7e6;stroke:none;stroke-width:2.45372"
     d="m 71.133987,169.00175 v 7.24686 h 9.969635 v -7.24686 z"
     id="path121-2" />
  <path
     style="fill:#dde7e6;stroke:none;stroke-width:2.45372"
     d="m 173.32283,224.5609 c 19.21399,4.95201 35.96798,-10.75433 37.38616,-28.98737 -16.18074,3.12096 -30.44231,14.59513 -37.38616,28.98737 m 154.52947,2.41561 c -2.06872,-11.96696 -12.13805,-19.11959 -22.4292,-25.39295 -3.54921,-2.16438 -11.12114,-6.84342 -14.6155,-2.00494 -3.45948,4.78773 1.99641,11.32921 5.21412,14.59271 9.01256,9.1407 19.18659,12.50805 31.83058,12.80518 z"
     id="path150-0" />
  <path
     style="fill:#dde7e6;stroke:none;stroke-width:2.45372"
     d="m 120.9822,224.5609 c 0,7.72513 -1.27612,16.98418 2.56219,24.05953 8.71847,16.07591 34.77414,26.47996 49.77844,36.40088 16.75149,11.0732 33.14906,22.65847 49.84821,33.80654 7.48222,4.99549 15.5701,12.06599 24.9241,13.23034 15.07162,1.8745 31.07787,-14.1072 42.37099,-21.93379 19.65266,-13.61683 39.71657,-26.67565 59.81785,-39.66682 8.77579,-5.67186 21.70143,-11.47175 27.34673,-20.44819 4.39414,-6.98111 2.56222,-17.61223 2.56222,-25.44849 -31.7633,11.28816 -62.03362,38.17879 -89.7268,56.93363 -10.98904,7.44008 -25.81639,22.74059 -39.87856,23.63437 -12.93312,0.8213 -27.26697,-15.5493 -37.38618,-22.09804 -29.08892,-18.82489 -59.48137,-46.44261 -92.21919,-58.46996 z"
     id="path169-9" />
  <path
     style="fill:#dde7e6;stroke:none"
     d="m 309,245 c -0.002,2.53 0.354,5.509 -0.603,7.91 -2.133,5.344 -9.918,8.571 -14.397,11.676 -9.949,6.899 -20.07,13.546 -30,20.453 -4.702,3.271 -11.693,11.058 -18,10.095 -4.433,-0.676 -8.464,-4.931 -12,-7.413 -7.593,-5.33 -15.364,-10.423 -23,-15.696 -5.325,-3.676 -10.584,-7.561 -16,-11.088 -3.088,-2.011 -7.088,-3.754 -8.972,-7.111 -1.449,-2.58 -1.026,-5.979 -1.028,-8.826 -3.552,0.013 -7.734,-0.376 -9.821,3.148 C 172.846,252.089 174,258.601 174,263 c 0,11.886 -2.272,26.412 0.394,38 1.707,7.417 9.892,11.494 15.606,15.579 12.894,9.218 25.655,18.957 39,27.475 6.054,3.864 11.356,9.127 19,8.888 7.021,-0.219 12.472,-5.539 18,-9.272 13.091,-8.841 26.45,-17.876 39,-27.435 5.055,-3.851 13.026,-7.546 14.606,-14.25 C 322.253,290.75 320,276.537 320,265 c 0,-4.785 1.173,-11.442 -0.603,-15.956 C 317.557,244.37 313.208,244.32 309,245 Z"
     id="path185-4"
     clip-path="url(#clipath_lpe_path-effect393-0)"
     inkscape:path-effect="#path-effect393-0"
     inkscape:original-d="m 309,245 c -0.002,2.53 0.354,5.509 -0.603,7.91 -2.133,5.344 -9.918,8.571 -14.397,11.676 -9.949,6.899 -20.07,13.546 -30,20.453 -4.702,3.271 -11.693,11.058 -18,10.095 -4.433,-0.676 -8.464,-4.931 -12,-7.413 -7.593,-5.33 -15.364,-10.423 -23,-15.696 -5.325,-3.676 -10.584,-7.561 -16,-11.088 -3.088,-2.011 -7.088,-3.754 -8.972,-7.111 -1.449,-2.58 -1.026,-5.979 -1.028,-8.826 -3.552,0.013 -7.734,-0.376 -9.821,3.148 C 172.846,252.089 174,258.601 174,263 c 0,11.886 -2.272,26.412 0.394,38 1.707,7.417 9.892,11.494 15.606,15.579 12.894,9.218 25.655,18.957 39,27.475 6.054,3.864 11.356,9.127 19,8.888 7.021,-0.219 12.472,-5.539 18,-9.272 13.091,-8.841 26.45,-17.876 39,-27.435 5.055,-3.851 13.026,-7.546 14.606,-14.25 C 322.253,290.75 320,276.537 320,265 c 0,-4.785 1.173,-11.442 -0.603,-15.956 C 317.557,244.37 313.208,244.32 309,245 Z"
     transform="matrix(2.4924108,0,0,2.4156149,-365.0379,-350.35544)" />
</svg>
